<svg width="672" height="230" viewBox="0 0 672 230" fill="none" xmlns="http://www.w3.org/2000/svg">
<path d="M358.425 135.38H319.505L313.065 154H292.485L327.625 56.14H350.445L385.585 154H364.865L358.425 135.38ZM353.105 119.7L338.965 78.82L324.825 119.7H353.105ZM412.72 87.64C415.24 84.0933 418.693 81.1533 423.08 78.82C427.56 76.3933 432.646 75.18 438.34 75.18C444.966 75.18 450.94 76.8133 456.26 80.08C461.673 83.3467 465.92 88.0133 469 94.08C472.173 100.053 473.76 107.007 473.76 114.94C473.76 122.873 472.173 129.92 469 136.08C465.92 142.147 461.673 146.86 456.26 150.22C450.94 153.58 444.966 155.26 438.34 155.26C432.646 155.26 427.606 154.093 423.22 151.76C418.926 149.427 415.426 146.487 412.72 142.94V190.96H393.12V76.44H412.72V87.64ZM453.74 114.94C453.74 110.273 452.76 106.26 450.8 102.9C448.933 99.4467 446.413 96.8333 443.24 95.06C440.16 93.2867 436.8 92.4 433.16 92.4C429.613 92.4 426.253 93.3333 423.08 95.2C420 96.9733 417.48 99.5867 415.52 103.04C413.653 106.493 412.72 110.553 412.72 115.22C412.72 119.887 413.653 123.947 415.52 127.4C417.48 130.853 420 133.513 423.08 135.38C426.253 137.153 429.613 138.04 433.16 138.04C436.8 138.04 440.16 137.107 443.24 135.24C446.413 133.373 448.933 130.713 450.8 127.26C452.76 123.807 453.74 119.7 453.74 114.94ZM492.343 67.2C488.889 67.2 485.996 66.1267 483.663 63.98C481.423 61.74 480.303 58.9867 480.303 55.72C480.303 52.4533 481.423 49.7467 483.663 47.6C485.996 45.36 488.889 44.24 492.343 44.24C495.796 44.24 498.643 45.36 500.883 47.6C503.216 49.7467 504.383 52.4533 504.383 55.72C504.383 58.9867 503.216 61.74 500.883 63.98C498.643 66.1267 495.796 67.2 492.343 67.2ZM502.003 76.44V154H482.403V76.44H502.003ZM510.727 115.22C510.727 107.193 512.361 100.193 515.627 94.22C518.894 88.1533 523.421 83.4867 529.207 80.22C534.994 76.86 541.621 75.18 549.087 75.18C558.701 75.18 566.634 77.6067 572.887 82.46C579.234 87.22 583.481 93.94 585.627 102.62H564.487C563.367 99.26 561.454 96.6467 558.747 94.78C556.134 92.82 552.867 91.84 548.947 91.84C543.347 91.84 538.914 93.8933 535.647 98C532.381 102.013 530.747 107.753 530.747 115.22C530.747 122.593 532.381 128.333 535.647 132.44C538.914 136.453 543.347 138.46 548.947 138.46C556.881 138.46 562.061 134.913 564.487 127.82H585.627C583.481 136.22 579.234 142.893 572.887 147.84C566.541 152.787 558.607 155.26 549.087 155.26C541.621 155.26 534.994 153.627 529.207 150.36C523.421 147 518.894 142.333 515.627 136.36C512.361 130.293 510.727 123.247 510.727 115.22ZM666.486 113.54C666.486 116.34 666.3 118.86 665.926 121.1H609.226C609.693 126.7 611.653 131.087 615.106 134.26C618.56 137.433 622.806 139.02 627.846 139.02C635.126 139.02 640.306 135.893 643.386 129.64H664.526C662.286 137.107 657.993 143.267 651.646 148.12C645.3 152.88 637.506 155.26 628.266 155.26C620.8 155.26 614.08 153.627 608.106 150.36C602.226 147 597.606 142.287 594.246 136.22C590.98 130.153 589.346 123.153 589.346 115.22C589.346 107.193 590.98 100.147 594.246 94.08C597.513 88.0133 602.086 83.3467 607.966 80.08C613.846 76.8133 620.613 75.18 628.266 75.18C635.64 75.18 642.22 76.7667 648.006 79.94C653.886 83.1133 658.413 87.64 661.586 93.52C664.853 99.3067 666.486 105.98 666.486 113.54ZM646.186 107.94C646.093 102.9 644.273 98.8867 640.726 95.9C637.18 92.82 632.84 91.28 627.706 91.28C622.853 91.28 618.746 92.7733 615.386 95.76C612.12 98.6533 610.113 102.713 609.366 107.94H646.186Z" fill="#2F2F2F"/>
<path fill-rule="evenodd" clip-rule="evenodd" d="M141.568 8.36914C136.949 0.369141 125.402 0.369141 120.783 8.36914L16.1317 189.631C16.1317 189.631 61.5355 153.18 89.0107 136.536C90.0791 135.888 91.1511 135.247 92.2267 134.61C94.2187 133.432 96.7836 134.218 97.8011 136.297L99.1616 139.076L101.679 129.214L114.288 79.8162L114.354 79.5779C115.836 74.6581 123.029 74.9408 124.039 80.0906L130.851 114.85L131.779 119.587L133.182 113.843L136.703 99.4304L136.758 99.2205C138.003 94.8707 144.02 94.2836 146.047 98.4128L148.698 103.811C149.6 105.649 151.745 106.506 153.674 105.819C165.958 101.447 178.554 97.7305 191.419 94.7134L141.568 8.36914ZM207.531 122.621C195.551 136.165 182.554 148.789 168.66 160.372L179.229 180.698C187.834 197.248 204.937 207.631 223.591 207.631C228.237 207.631 232.564 207.631 235.827 207.631C248.763 207.631 250.838 197.631 246.219 189.631L207.531 122.621Z" fill="url(#paint0_linear_15_2381)"/>
<path fill-rule="evenodd" clip-rule="evenodd" d="M195.602 101.959C181.325 105.202 167.381 109.324 153.832 114.267C152.467 114.765 151.106 115.271 149.749 115.786C147.804 116.523 145.61 115.673 144.693 113.805L142.777 109.903L142.511 109.362L142.337 110.076L139.998 119.653L136.315 134.732C135.043 139.938 127.582 139.766 126.551 134.508L124.946 126.315L123.36 118.224L118.747 94.6892L111.231 124.141L108.569 134.572L104.898 148.955C103.748 153.461 97.6071 154.094 95.5622 149.917L94.4705 147.687C93.4357 145.573 90.8075 144.804 88.8127 146.053C62.7935 162.341 39.0841 181.982 18.29 204.372C15.4556 207.424 12.5862 211.22 9.76636 215.114C6.52007 219.596 10.5735 226.069 15.9961 224.961C36.5074 220.767 57.5126 215.325 75.8083 207.631C105.76 195.034 133.577 178.358 158.563 158.297C160.689 156.59 162.795 154.858 164.879 153.103C178.642 141.512 191.492 128.872 203.307 115.305C206.745 111.357 210.094 107.332 213.353 103.231C213.938 102.495 214.096 101.88 214.121 101.437C214.148 100.955 214.027 100.463 213.766 100.027C213.504 99.59 213.129 99.2507 212.69 99.0462C212.288 98.8584 211.671 98.7065 210.746 98.8734C205.659 99.7918 200.61 100.821 195.602 101.959Z" fill="url(#paint1_linear_15_2381)"/>
<defs>
<linearGradient id="paint0_linear_15_2381" x1="-0.491689" y1="216.79" x2="198.08" y2="59.0232" gradientUnits="userSpaceOnUse">
<stop stop-color="#2EE1A0"/>
<stop offset="0.538462" stop-color="#2DB1E6"/>
<stop offset="1" stop-color="#1570B6"/>
</linearGradient>
<linearGradient id="paint1_linear_15_2381" x1="58.5326" y1="180.575" x2="127.586" y2="151.824" gradientUnits="userSpaceOnUse">
<stop stop-color="#2EE1A0"/>
<stop offset="0.538462" stop-color="#2DB1E6"/>
<stop offset="1" stop-color="#1570B6"/>
</linearGradient>
</defs>
</svg>
