<svg width="249" height="227" viewBox="0 0 249 227" fill="none" xmlns="http://www.w3.org/2000/svg">
<path fill-rule="evenodd" clip-rule="evenodd" d="M141.568 6C136.949 -2 125.402 -2 120.783 6L16.1317 187.262C16.1317 187.262 61.5355 150.811 89.0107 134.166C90.0791 133.519 91.1511 132.877 92.2267 132.241C94.2187 131.063 96.7836 131.849 97.8011 133.928L99.1616 136.707L101.679 126.845L114.288 77.447L114.354 77.2087C115.836 72.2889 123.029 72.5717 124.039 77.7214L130.851 112.481L131.779 117.218L133.182 111.474L136.703 97.0613L136.758 96.8513C138.003 92.5015 144.02 91.9144 146.047 96.0437L148.698 101.441C149.6 103.28 151.745 104.137 153.674 103.45C165.958 99.0774 178.554 95.3613 191.419 92.3442L141.568 6ZM207.531 120.251C195.551 133.796 182.554 146.42 168.66 158.003L179.229 178.329C187.834 194.878 204.937 205.262 223.591 205.262C228.237 205.262 232.564 205.262 235.827 205.262C248.763 205.262 250.838 195.262 246.219 187.262L207.531 120.251Z" fill="url(#paint0_linear_15_2383)"/>
<path fill-rule="evenodd" clip-rule="evenodd" d="M195.602 99.5895C181.325 102.832 167.381 106.955 153.832 111.898C152.467 112.396 151.106 112.902 149.749 113.416C147.804 114.154 145.61 113.303 144.693 111.436L142.777 107.533L142.511 106.993L142.337 107.707L139.998 117.284L136.315 132.363C135.043 137.569 127.582 137.397 126.551 132.138L124.946 123.946L123.36 115.855L118.747 92.3201L111.231 121.772L108.569 132.203L104.898 146.586C103.748 151.092 97.6071 151.724 95.5622 147.548L94.4705 145.318C93.4357 143.204 90.8075 142.435 88.8127 143.683C62.7935 159.972 39.0841 179.613 18.29 202.003C15.4556 205.055 12.5862 208.851 9.76636 212.745C6.52007 217.227 10.5735 223.7 15.9961 222.592C36.5074 218.398 57.5126 212.956 75.8083 205.262C105.76 192.665 133.577 175.989 158.563 155.927C160.689 154.221 162.795 152.489 164.879 150.733C178.642 139.143 191.492 126.503 203.307 112.935C206.745 108.988 210.094 104.963 213.353 100.862C213.938 100.126 214.096 99.5104 214.121 99.0677C214.148 98.5854 214.027 98.0943 213.766 97.6575C213.504 97.2208 213.129 96.8816 212.69 96.6771C212.288 96.4893 211.671 96.3374 210.746 96.5042C205.659 97.4227 200.61 98.452 195.602 99.5895Z" fill="url(#paint1_linear_15_2383)"/>
<defs>
<linearGradient id="paint0_linear_15_2383" x1="-0.491689" y1="214.421" x2="198.08" y2="56.6541" gradientUnits="userSpaceOnUse">
<stop stop-color="#2EE1A0"/>
<stop offset="0.538462" stop-color="#2DB1E6"/>
<stop offset="1" stop-color="#1570B6"/>
</linearGradient>
<linearGradient id="paint1_linear_15_2383" x1="58.5326" y1="178.206" x2="127.586" y2="149.455" gradientUnits="userSpaceOnUse">
<stop stop-color="#2EE1A0"/>
<stop offset="0.538462" stop-color="#2DB1E6"/>
<stop offset="1" stop-color="#1570B6"/>
</linearGradient>
</defs>
</svg>
